<?xml version="1.0" standalone="no"?>
<!DOCTYPE svg PUBLIC "-//W3C//DTD SVG 20010904//EN"
 "http://www.w3.org/TR/2001/REC-SVG-20010904/DTD/svg10.dtd">
<svg version="1.0" xmlns="http://www.w3.org/2000/svg"
 width="1863.000000pt" height="578.000000pt" viewBox="0 0 1863.000000 578.000000"
 preserveAspectRatio="xMidYMid meet">

<g transform="translate(0.000000,578.000000) scale(0.100000,-0.100000)"
fill="#000000" stroke="none">
<path d="M2990 3910 l0 -1760 110 0 110 0 2 590 3 589 569 -589 569 -590 156
0 156 0 -465 468 c-256 257 -530 533 -609 614 l-144 146 219 225 c120 124 374
383 563 576 l343 351 -138 0 -139 0 -540 -566 -540 -565 -3 1135 -2 1136 -110
0 -110 0 0 -1760z"/>
<path d="M14200 3910 l0 -1760 270 0 270 0 0 570 c0 314 3 570 8 569 4 0 213
-257 466 -570 l458 -569 340 0 340 0 -54 62 c-29 34 -268 309 -530 612 -263
303 -476 556 -474 563 3 6 218 261 479 566 261 305 477 559 481 565 5 9 -74
12 -313 12 l-321 0 -437 -547 -438 -547 -3 1117 -2 1117 -270 0 -270 0 0
-1760z"/>
<path d="M735 3863 c-335 -890 -617 -1639 -627 -1665 l-18 -48 128 0 127 0
179 493 c99 270 185 504 193 520 l14 27 714 0 715 0 13 -27 c6 -15 93 -248
192 -517 l180 -491 128 -3 c107 -2 128 0 125 12 -2 7 -280 757 -618 1665
l-615 1651 -110 0 -111 0 -609 -1617z m759 1182 c20 -66 161 -462 314 -880
l278 -760 -635 -3 c-349 -1 -636 0 -639 2 -2 3 129 373 291 823 163 450 306
852 318 892 14 50 24 70 29 60 4 -7 24 -68 44 -134z"/>
<path d="M9590 5245 l0 -235 475 0 475 0 0 -1430 0 -1430 275 0 275 0 0 1430
0 1430 480 0 480 0 0 235 0 235 -1230 0 -1230 0 0 -235z"/>
<path d="M5291 4579 c-173 -22 -328 -96 -447 -214 -129 -127 -178 -244 -178
-425 0 -281 151 -473 503 -642 298 -142 392 -192 456 -240 127 -97 175 -187
175 -327 -1 -287 -190 -441 -538 -441 -54 0 -126 7 -162 14 -138 30 -304 100
-395 169 l-50 37 -3 -121 c-3 -144 -5 -140 112 -198 246 -121 605 -133 864
-27 188 76 345 257 383 441 15 77 15 218 -1 287 -32 137 -117 248 -266 347
-43 29 -185 105 -314 168 -376 184 -444 232 -502 351 -29 59 -33 77 -36 168
-3 79 0 116 14 160 38 121 149 226 291 276 60 20 85 23 223 22 139 0 164 -3
244 -28 49 -15 133 -49 186 -76 53 -28 99 -50 103 -50 4 0 7 52 7 115 l0 115
-60 30 c-159 80 -403 116 -609 89z"/>
<path d="M7042 4580 c-161 -23 -326 -89 -442 -178 -224 -172 -383 -431 -444
-722 -58 -275 -35 -650 55 -907 161 -457 533 -707 1011 -679 253 15 501 95
694 223 l54 36 0 112 0 113 -96 -65 c-125 -83 -211 -126 -337 -168 -137 -45
-242 -59 -396 -52 -148 7 -215 23 -331 80 -70 34 -101 57 -180 136 -64 65
-109 120 -137 171 -83 148 -143 388 -143 574 l0 76 876 0 877 0 -6 188 c-6
207 -25 318 -78 469 -137 387 -400 585 -794 598 -66 2 -148 0 -183 -5z m301
-205 c303 -64 499 -343 533 -757 l7 -88 -762 0 c-760 0 -761 0 -761 20 0 37
30 173 57 255 101 313 317 518 604 574 71 14 248 12 322 -4z"/>
<path d="M8881 4579 c-173 -22 -328 -96 -447 -214 -128 -126 -177 -245 -177
-430 -1 -276 152 -470 502 -637 298 -142 392 -192 456 -240 127 -97 175 -187
175 -327 -1 -287 -190 -441 -538 -441 -104 0 -188 15 -292 50 -90 31 -210 91
-267 135 l-48 37 -3 -123 c-3 -144 -5 -140 112 -198 246 -121 605 -133 864
-27 185 75 340 251 382 435 17 71 17 222 1 291 -33 139 -117 250 -267 349 -43
29 -185 105 -314 168 -376 184 -444 232 -502 351 -30 60 -33 76 -36 172 -3 86
0 115 17 164 43 122 148 219 288 268 60 20 85 23 223 22 139 0 164 -3 244 -28
49 -15 133 -49 186 -76 53 -28 99 -50 103 -50 4 0 7 52 7 115 l0 115 -60 30
c-159 80 -403 116 -609 89z"/>
<path d="M12553 4569 c-264 -38 -505 -154 -675 -324 -178 -178 -281 -392 -323
-670 -17 -117 -20 -370 -4 -481 38 -278 150 -507 335 -684 226 -217 485 -310
860 -310 189 0 304 17 454 66 530 175 824 680 770 1323 -25 299 -100 514 -246
700 -160 205 -406 339 -699 381 -84 12 -386 11 -472 -1z m402 -435 c101 -26
183 -73 257 -146 159 -160 238 -453 209 -774 -22 -241 -83 -396 -205 -518
-127 -128 -241 -170 -456 -170 -124 0 -142 2 -220 30 -237 83 -388 276 -441
564 -20 105 -15 348 8 460 69 325 261 525 548 569 76 12 222 5 300 -15z"/>
<path d="M17103 4560 c-514 -90 -846 -421 -950 -945 -28 -141 -25 -474 6 -615
89 -413 365 -724 746 -843 132 -41 253 -57 429 -57 373 0 642 95 868 308 175
164 282 364 339 632 19 90 23 135 23 310 0 279 -31 441 -118 626 -155 328
-421 524 -795 588 -131 22 -411 20 -548 -4z m446 -426 c151 -39 289 -149 363
-289 140 -268 145 -721 10 -994 -97 -198 -281 -315 -516 -328 -345 -19 -604
171 -696 513 -27 101 -38 361 -21 486 51 349 263 586 563 628 78 11 222 3 297
-16z"/>
<path d="M16715 1510 l-240 -240 135 0 135 0 105 105 105 105 105 -105 106
-106 132 3 132 3 -237 238 -238 237 -240 -240z"/>
<path d="M15693 1110 c-94 -20 -180 -87 -224 -176 -33 -66 -34 -187 -2 -255
30 -66 86 -124 151 -156 l57 -28 383 -5 384 -5 29 -33 c42 -47 36 -103 -15
-144 -19 -16 -55 -18 -382 -18 -347 0 -362 1 -387 20 -14 11 -31 36 -37 55
l-12 35 -100 0 -101 0 7 -48 c14 -104 85 -197 186 -246 44 -20 57 -21 435 -21
361 0 394 1 440 19 66 26 147 103 175 167 60 141 -4 313 -144 387 l-51 27
-386 5 c-369 5 -388 6 -409 25 -13 11 -29 35 -37 53 -18 42 -4 92 34 122 25
19 40 20 385 20 l360 0 34 -34 c19 -19 34 -44 34 -55 0 -21 4 -22 103 -19
l102 3 -3 30 c-8 73 -35 130 -91 186 -93 92 -95 93 -516 95 -198 1 -379 -1
-402 -6z"/>
<path d="M17450 1111 c-92 -19 -173 -82 -222 -173 -22 -42 -23 -50 -23 -338 0
-288 1 -296 23 -338 35 -66 88 -119 150 -149 l57 -28 395 0 395 0 57 28 c70
34 140 110 162 174 12 36 16 88 16 225 l0 178 -400 0 -400 0 0 -100 0 -100
300 0 300 0 0 -61 c0 -68 -19 -111 -57 -128 -16 -7 -145 -11 -378 -11 l-355 0
-32 29 -33 29 0 252 0 252 33 29 32 29 361 0 361 0 34 -34 c19 -19 34 -43 34
-55 0 -20 5 -21 100 -21 l100 0 0 33 c0 94 -77 205 -178 254 l-57 28 -370 2
c-203 1 -386 -2 -405 -6z"/>
<path d="M16850 590 l0 -510 105 0 105 0 0 510 0 510 -105 0 -105 0 0 -510z"/>
<path d="M13990 750 l0 -99 -36 24 c-65 44 -158 28 -207 -36 -68 -90 -60 -238
16 -317 56 -57 143 -67 201 -21 l26 20 0 -20 c0 -17 6 -21 35 -21 l35 0 0 285
0 285 -35 0 -35 0 0 -100z m-51 -126 c33 -24 51 -74 51 -144 0 -95 -39 -150
-106 -150 -63 0 -114 69 -114 155 0 48 20 106 45 131 29 29 89 32 124 8z"/>
<path d="M14330 565 l0 -285 35 0 c29 0 35 4 35 21 l0 20 26 -20 c57 -45 135
-39 195 16 81 73 92 229 22 322 -49 64 -142 80 -207 36 l-36 -24 0 99 0 100
-35 0 -35 0 0 -285z m245 51 c32 -33 48 -98 40 -165 -16 -127 -145 -166 -200
-61 -9 16 -15 55 -15 90 0 106 38 160 113 160 27 0 45 -7 62 -24z"/>
<path d="M11575 690 c-12 -4 -27 -15 -34 -24 -18 -22 -31 -20 -31 4 0 16 -7
20 -30 20 l-30 0 0 -285 0 -285 35 0 35 0 0 100 0 99 36 -24 c20 -14 50 -25
66 -25 34 0 94 24 122 48 26 24 55 90 57 132 1 21 3 27 6 15 17 -76 28 -101
59 -134 76 -84 220 -78 289 13 47 61 52 208 10 272 -30 46 -84 77 -140 82
-108 9 -184 -44 -206 -145 l-14 -58 -7 48 c-8 62 -46 119 -91 140 -37 18 -98
21 -132 7z m120 -80 c26 -26 30 -38 33 -99 2 -38 -1 -85 -8 -105 -21 -64 -83
-93 -143 -65 -71 32 -89 189 -30 260 48 57 96 60 148 9z m373 14 c35 -24 52
-68 52 -134 0 -108 -41 -160 -126 -160 -108 0 -156 190 -69 277 27 27 41 33
77 33 24 0 54 -7 66 -16z"/>
<path d="M12822 679 c-29 -15 -51 -36 -70 -68 -23 -40 -27 -57 -27 -126 0 -65
4 -87 23 -120 63 -110 222 -128 306 -35 47 53 48 80 2 80 -26 0 -36 -5 -41
-20 -19 -61 -119 -81 -174 -34 -25 21 -51 74 -51 107 0 4 70 7 156 7 l157 0
-6 51 c-4 28 -18 70 -32 94 -46 79 -154 108 -243 64z m162 -61 c15 -13 29 -38
32 -55 l7 -33 -112 0 c-106 0 -111 1 -111 21 0 12 15 36 34 55 29 29 41 34 79
34 33 0 53 -6 71 -22z"/>
<path d="M13219 669 l-29 -31 0 26 c0 22 -4 26 -30 26 l-30 0 0 -205 0 -205
34 0 35 0 3 149 c3 143 4 151 28 176 21 23 31 26 63 21 34 -6 38 -4 48 21 8
22 7 30 -7 40 -33 24 -83 16 -115 -18z"/>
<path d="M13425 681 c-74 -34 -105 -93 -105 -198 1 -108 37 -170 117 -199 86
-30 186 -2 231 65 28 42 24 55 -15 59 -26 3 -34 -2 -49 -27 -45 -76 -155 -66
-199 19 -8 16 -15 38 -15 50 0 19 5 20 150 20 l150 0 0 45 c0 75 -49 150 -113
174 -42 16 -107 13 -152 -8z m154 -68 c17 -16 33 -40 37 -55 l6 -28 -116 0
c-64 0 -116 2 -116 5 0 20 32 75 51 89 38 26 103 21 138 -11z"/>
<path d="M12180 678 c0 -7 27 -98 59 -203 l58 -190 38 0 38 0 41 155 c35 133
41 151 48 125 5 -17 23 -86 41 -155 l33 -125 36 -3 37 -3 36 118 c20 65 50
157 65 206 l28 87 -34 0 -33 0 -31 -102 c-17 -57 -39 -127 -49 -157 l-17 -54
-39 156 -40 157 -37 0 c-35 0 -38 -3 -47 -37 -45 -172 -71 -266 -74 -269 -4
-5 -11 19 -58 189 l-31 117 -34 0 c-21 0 -34 -5 -34 -12z"/>
<path d="M14760 483 c76 -203 78 -209 64 -243 -19 -45 -39 -60 -81 -60 -26 0
-33 -4 -33 -19 0 -32 29 -54 64 -47 73 15 75 19 197 344 l87 233 -37 -3 c-40
-3 -31 14 -116 -228 -19 -52 -36 -88 -39 -80 -2 8 -28 81 -56 163 l-52 147
-38 0 -38 0 78 -207z"/>
</g>
</svg>
