<?xml version="1.0" encoding="utf-8"?>
<!-- Generator: Adobe Illustrator 25.4.1, SVG Export Plug-In . SVG Version: 6.00 Build 0)  -->
<svg version="1.1" id="Layer_1" xmlns="http://www.w3.org/2000/svg" xmlns:xlink="http://www.w3.org/1999/xlink" x="0px" y="0px"
	 viewBox="0 0 24 24" style="enable-background:new 0 0 24 24;" xml:space="preserve">
<style type="text/css">
	.st0{fill:#374355;}
</style>
<path class="st0" d="M19.46,19.91h-1.21v-0.8c0-0.92-0.24-1.78-0.69-2.48c-0.1-0.17-0.22-0.33-0.36-0.49
	c-0.82-0.94-2.98-3.05-4.05-4.09c0.97-0.94,2.82-2.74,3.77-3.78l0.07-0.05L16.98,8.2c0.08-0.09,0.16-0.17,0.22-0.25
	c0.14-0.16,0.26-0.33,0.36-0.49c0.45-0.71,0.69-1.56,0.69-2.48V4.09h0.73c0.9,0,1.64-0.74,1.64-1.65v-0.5
	c0-0.91-0.74-1.65-1.65-1.65H5.02c-0.91,0-1.65,0.74-1.65,1.65v0.5c0,0.91,0.74,1.65,1.65,1.65h0.59v0.89c0,0.92,0.24,1.77,0.7,2.48
	c0.1,0.16,0.22,0.32,0.36,0.48c0.81,0.94,2.97,3.05,4.04,4.09c-1.07,1.04-3.24,3.15-4.05,4.1C6.52,16.3,6.4,16.46,6.3,16.62
	c-0.45,0.71-0.69,1.56-0.69,2.48v0.81H4.54c-0.65,0-1.17,0.53-1.17,1.17v1.46c0,0.41,0.34,0.75,0.75,0.75
	c0.41,0,0.75-0.34,0.75-0.75v-1.13h14.25v0.8H8.63c-0.41,0-0.75,0.34-0.75,0.75c0,0.41,0.34,0.75,0.75,0.75h10.83
	c0.64,0,1.16-0.52,1.17-1.17v-1.46C20.63,20.43,20.1,19.91,19.46,19.91z M16.06,17.12c0.09,0.11,0.17,0.21,0.24,0.32
	c0.29,0.46,0.45,1.03,0.45,1.66v0.45l-3.23-3.23c-0.24-0.24-0.53-0.41-0.84-0.52v-2.12C13.81,14.78,15.42,16.38,16.06,17.12z
	 M4.87,2.44v-0.5c0-0.08,0.07-0.15,0.15-0.15h13.95c0.08,0,0.15,0.07,0.15,0.15v0.5c0,0.08-0.07,0.15-0.15,0.15H5.02
	C4.94,2.59,4.87,2.52,4.87,2.44z M16.75,4.09v0.9c0,0.63-0.15,1.2-0.45,1.66c-0.01,0.01-0.02,0.03-0.03,0.04H7.6
	C7.59,6.67,7.57,6.66,7.56,6.64C7.27,6.18,7.11,5.61,7.11,4.98V4.09H16.75z M7.56,17.43c0.07-0.11,0.15-0.22,0.24-0.32
	c0.64-0.74,2.25-2.34,3.38-3.44v2.13c-0.3,0.11-0.59,0.27-0.83,0.52L7.1,19.57v-0.48C7.1,18.47,7.26,17.89,7.56,17.43z"/>
</svg>
